{
  "accessors": [
    {
      "bufferView": 0,
      "componentType": 5125,
      "count": 312,
      "type": "SCALAR"
    },
    {
      "bufferView": 1,
      "componentType": 5126,
      "count": 126,
      "max": [
        0.20842793660292072,
        0.0021626829800019676,
        0.019599999504862353
      ],
      "min": [
        0.08990591805747275,
        -0.10206509753492324,
        -0.019599999504862353
      ],
      "type": "VEC3"
    },
    {
      "bufferView": 2,
      "componentType": 5126,
      "count": 126,
      "max": [
        1.0,
        1.0,
        1.0
      ],
      "min": [
        -1.0,
        -1.0,
        -1.0
      ],
      "type": "VEC3"
    },
    {
      "bufferView": 3,
      "componentType": 5126,
      "count": 126,
      "max": [
        1.0,
        0.9484783839587859
      ],
      "min": [
        0.0,
        0.0
      ],
      "type": "VEC2"
    },
    {
      "bufferView": 4,
      "componentType": 5125,
      "count": 8238,
      "type": "SCALAR"
    },
    {
      "bufferView": 5,
      "componentType": 5126,
      "count": 2343,
      "max": [
        0.13581880747006,
        0.10206509753492332,
        0.019599999504862353
      ],
      "min": [
        -0.20842793660292075,
        -0.03119759452885576,
        -0.019599999504862353
      ],
      "type": "VEC3"
    },
    {
      "bufferView": 6,
      "componentType": 5126,
      "count": 2343,
      "max": [
        1.0,
        1.0,
        1.0
      ],
      "min": [
        -1.0,
        -1.0,
        -1.0
      ],
      "type": "VEC3"
    },
    {
      "bufferView": 7,
      "componentType": 5126,
      "count": 2343,
      "max": [
        1.0,
        0.9410031649646715
      ],
      "min": [
        0.0,
        0.0
      ],
      "type": "VEC2"
    }
  ],
  "asset": {
    "generator": "Adobe Illustrator",
    "version": "2.0"
  },
  "bufferViews": [
    {
      "buffer": 0,
      "byteLength": 1248,
      "target": 34963
    },
    {
      "buffer": 0,
      "byteLength": 1512,
      "byteOffset": 1248,
      "target": 34962
    },
    {
      "buffer": 0,
      "byteLength": 1512,
      "byteOffset": 2760,
      "target": 34962
    },
    {
      "buffer": 0,
      "byteLength": 1008,
      "byteOffset": 4272,
      "target": 34962
    },
    {
      "buffer": 0,
      "byteLength": 32952,
      "byteOffset": 5280,
      "target": 34963
    },
    {
      "buffer": 0,
      "byteLength": 28116,
      "byteOffset": 38232,
      "target": 34962
    },
    {
      "buffer": 0,
      "byteLength": 28116,
      "byteOffset": 66348,
      "target": 34962
    },
    {
      "buffer": 0,
      "byteLength": 18744,
      "byteOffset": 94464,
      "target": 34962
    }
  ],
  "buffers": [
    {
      "byteLength": 113208,
      "uri": "data:application/octet-stream;base64,"
    }
  ],
  "materials": [
    {
      "doubleSided": true,
      "pbrMetallicRoughness": {
        "baseColorFactor": [
          0.0,
          0.3906249701976776,
          0.25390625,
          1.0
        ],
        "metallicFactor": 0.7409307360649109,
        "roughnessFactor": 0.14758829772472382
      }
    },
    {
      "doubleSided": true,
      "pbrMetallicRoughness": {
        "baseColorFactor": [
          0.0,
          0.3906249701976776,
          0.25390625,
          1.0
        ],
        "metallicFactor": 0.7409307360649109,
        "roughnessFactor": 0.14758829772472382
      }
    }
  ],
  "meshes": [
    {
      "primitives": [
        {
          "attributes": {
            "NORMAL": 2,
            "POSITION": 1,
            "TEXCOORD_0": 3
          },
          "indices": 0,
          "material": 0,
          "mode": 4
        }
      ]
    },
    {
      "primitives": [
        {
          "attributes": {
            "NORMAL": 6,
            "POSITION": 5,
            "TEXCOORD_0": 7
          },
          "indices": 4,
          "material": 1,
          "mode": 4
        }
      ]
    }
  ],
  "nodes": [
    {
      "mesh": 0
    },
    {
      "mesh": 1
    }
  ],
  "scenes": [
    {
      "nodes": [
        0,
        1
      ]
    }
  ]
}
